<?xml version="1.0" encoding="iso-8859-1"?>
<!-- Uploaded to: SVG Repo, www.svgrepo.com, Generator: SVG Repo Mixer Tools -->
<svg fill="#000000" height="800px" width="800px" version="1.1" id="Layer_1" xmlns="http://www.w3.org/2000/svg" xmlns:xlink="http://www.w3.org/1999/xlink" 
	 viewBox="0 0 503.607 503.607" xml:space="preserve">
<g>
	<g>
		<path d="M428.066,134.295c0-5.036-3.357-8.393-8.393-8.393v-16.787c5.036,0,8.393-3.357,8.393-8.393s-3.357-8.393-8.393-8.393
			V50.361c0-5.036-3.357-8.393-8.393-8.393h-25.18V25.18c0-9.233-7.554-16.787-16.787-16.787h-16.787
			c-9.233,0-16.787,7.554-16.787,16.787v16.787h-8.393v-25.18C327.344,7.554,319.79,0,310.557,0H193.049
			c-9.233,0-16.787,7.554-16.787,16.787v25.18h-8.393V25.18c0-9.233-7.554-16.787-16.787-16.787h-16.787
			c-9.233,0-16.787,7.554-16.787,16.787v16.787h-25.18c-5.036,0-8.393,4.197-8.393,8.393v41.967c-5.036,0-8.393,3.357-8.393,8.393
			s3.357,8.393,8.393,8.393v16.787c-5.036,0-8.393,3.357-8.393,8.393s3.357,8.393,8.393,8.393v16.787
			c-5.036,0-8.393,3.357-8.393,8.393s3.357,8.393,8.393,8.393v16.787c-5.036,0-8.393,3.357-8.393,8.393s3.357,8.393,8.393,8.393
			v16.787c-5.036,0-8.393,3.357-8.393,8.393s3.357,8.393,8.393,8.393v41.967c0,5.036,3.357,8.393,8.393,8.393h25.18v41.967
			c0,9.233,7.554,16.787,16.787,16.787h16.787c9.233,0,16.787-7.554,16.787-16.787v-41.967h41.967v16.787
			c-5.036,0-8.393,3.357-8.393,8.393c0,5.036,3.357,8.393,8.393,8.393v16.787c0,9.233,7.554,16.787,16.787,16.787V486.82H109.115
			c-5.036,0-8.393,3.357-8.393,8.393c0,5.036,3.357,8.393,8.393,8.393h125.902h33.574h109.115c5.036,0,8.393-3.357,8.393-8.393
			c0-5.036-3.357-8.393-8.393-8.393H276.984V360.918c9.233,0,16.787-7.554,16.787-16.787v-16.787c5.036,0,8.393-3.357,8.393-8.393
			c0-5.036-3.357-8.393-8.393-8.393v-16.787h33.574v41.967c0,9.233,7.554,16.787,16.787,16.787h16.787
			c9.233,0,16.787-7.554,16.787-16.787v-41.967h33.574c5.036,0,8.393-3.357,8.393-8.393V243.41c5.036,0,8.393-3.357,8.393-8.393
			s-3.357-8.393-8.393-8.393v-16.787c5.036,0,8.393-3.357,8.393-8.393s-3.357-8.393-8.393-8.393v-16.787
			c5.036,0,8.393-3.357,8.393-8.393s-3.357-8.393-8.393-8.393v-16.787C424.708,142.689,428.066,139.331,428.066,134.295z
			 M276.984,344.131h-8.393h-33.574h-8.393v-16.787h50.361V344.131z M276.984,310.557h-50.361v-16.787h50.361V310.557z
			 M402.885,276.984h-33.574h-33.574h-50.361H218.23h-58.754h-33.574h-25.18V243.41h302.164V276.984z M402.885,226.623H100.721
			v-16.787h302.164V226.623z M402.885,193.049H100.721v-16.787h302.164V193.049z M402.885,159.475H100.721v-16.787h302.164V159.475z
			 M402.885,125.902H100.721v-16.787h302.164V125.902z M402.885,92.328H100.721V58.754h25.18h33.574h25.18h134.295h25.18h33.574
			h25.18V92.328z"/>
	</g>
</g>
</svg>