<?xml version="1.0" ?>
<!-- Uploaded to: SVG Repo, www.svgrepo.com, Generator: SVG Repo Mixer Tools -->
<svg width="800px" height="800px" viewBox="0 0 20 20" version="1.1" xmlns="http://www.w3.org/2000/svg">
<g id="layer1">
<path d="M 5 0 L 5 3 L 5 4 L 5 6 L 5 7 L 5 9 L 5 10 L 5 20 L 15 20 L 15 10 L 15 9 L 15 7 L 15 6 L 15 4 L 15 3 L 15 0 L 5 0 z M 6 1 L 14 1 L 14 3 L 6 3 L 6 1 z M 6 4 L 14 4 L 14 6 L 6 6 L 6 4 z M 6 7 L 14 7 L 14 9 L 6 9 L 6 7 z M 6 10 L 14 10 L 14 19 L 6 19 L 6 10 z M 12 11 L 12 12 L 13 12 L 13 11 L 12 11 z" style="fill:#222222; fill-opacity:1; stroke:none; stroke-width:0px;"/>
</g>
</svg>