<?xml version="1.0" encoding="iso-8859-1"?>
<!-- Uploaded to: SVG Repo, www.svgrepo.com, Generator: SVG Repo Mixer Tools -->
<svg height="800px" width="800px" version="1.1" id="Layer_1" xmlns="http://www.w3.org/2000/svg" xmlns:xlink="http://www.w3.org/1999/xlink" 
	 viewBox="0 0 512 512" xml:space="preserve">
<path style="fill:#A31B00;" d="M18.464,199.041v-88.88c0-61.965,40.685-84.499,93.888-84.499c52.577,0,93.888,22.534,93.888,84.499
	v88.88c0,61.965-41.31,84.499-93.888,84.499C59.149,283.54,18.464,261.007,18.464,199.041z M143.648,110.161
	c0-20.655-11.893-30.044-31.296-30.044s-30.67,9.389-30.67,30.044v88.88c0,20.656,11.267,30.044,30.67,30.044
	s31.296-9.389,31.296-30.044V110.161z M400.273,33.173c0,3.755-0.625,8.137-2.503,11.893L177.448,496.352
	C173.066,505.741,161.173,512,149.282,512c-21.282,0-35.051-17.526-35.051-33.173c0-3.755,1.252-8.136,3.13-11.893L337.056,15.648
	C342.063,5.007,352.078,0,363.345,0C380.87,0,400.273,13.144,400.273,33.173z M305.761,400.587v-88.88
	c0-61.966,40.684-84.499,93.888-84.499c52.577,0,93.888,22.533,93.888,84.499v88.88c0,61.965-41.311,84.499-93.888,84.499
	C346.444,485.086,305.761,462.553,305.761,400.587z M430.943,311.707c0-20.656-11.893-30.044-31.296-30.044
	s-30.67,9.389-30.67,30.044v88.88c0,20.654,11.267,30.044,30.67,30.044s31.296-9.389,31.296-30.044V311.707z"/>
<path style="fill:#F53000;" d="M18.464,199.041v-88.88c0-61.965,40.685-84.499,93.888-84.499c52.577,0,93.888,22.534,93.888,84.499
	v88.88c0,61.965-41.31,84.499-93.888,84.499C59.149,283.54,18.464,261.007,18.464,199.041z M143.648,110.161
	c0-20.655-11.893-30.044-31.296-30.044s-30.67,9.389-30.67,30.044v88.88c0,20.656,11.267,30.044,30.67,30.044
	s31.296-9.389,31.296-30.044V110.161z M400.273,33.173c0,3.755-0.625,8.137-2.503,11.893L177.448,496.352
	C173.066,505.741,161.173,512,149.282,512c-21.282,0-35.051-17.526-35.051-33.173c0-3.755,1.252-8.136,3.13-11.893L337.056,15.648
	C342.063,5.007,352.078,0,363.345,0C380.87,0,400.273,13.144,400.273,33.173z"/>
<path style="fill:#A31B00;" d="M400.273,33.173c0-14.063-9.569-24.724-21.334-29.832L133.031,508.157
	c4.708,2.409,10.17,3.843,16.25,3.843c11.893,0,23.785-6.259,28.166-15.648L397.77,45.065
	C399.647,41.31,400.273,36.929,400.273,33.173z"/>
</svg>